<svg fill="#000000" width="40" height="40" viewBox="0 0 40 40" id="translate" data-name="Flat Line" xmlns="http://www.w3.org/2000/svg" class="icon flat-line" version="1.1" xmlns:xlink="http://www.w3.org/1999/xlink">
  <path id="secondary" d="M21 4v12a1 1 0 0 1 -1 1h-4l-4 4 -4 -4H4a1 1 0 0 1 -1 -1V4a1 1 0 0 1 1 -1h16a1 1 0 0 1 1 1" style="fill: rgb(44, 169, 188); stroke-width: 2;"/>
  <path id="primary" d="M10 11a8.14 8.14 0 0 0 4 3" style="fill: none; stroke: rgb(0, 0, 0); stroke-linecap: round; stroke-linejoin: round; stroke-width: 2;"/>
  <path id="primary-2" data-name="primary" d="M10 14c4 -1 4 -6 4 -6" style="fill: none; stroke: rgb(0, 0, 0); stroke-linecap: round; stroke-linejoin: round; stroke-width: 2;"/>
  <path id="primary-3" data-name="primary" d="M8 8h8m-4 -1v1m8 -5H4a1 1 0 0 0 -1 1v12a1 1 0 0 0 1 1h4l4 4 4 -4h4a1 1 0 0 0 1 -1V4a1 1 0 0 0 -1 -1" style="fill: none; stroke: rgb(0, 0, 0); stroke-linecap: round; stroke-linejoin: round; stroke-width: 2;"/>
</svg>
